Patient4_TMGait_0pt5_01_right_40_EMG.mot
version=1
nRows=23
nColumns=33
inDegrees=no
endheader
time	1LAddLong	2LGlutMax	3LGlutMed	4LIliopsoas	5LSemiMemb	6LBicFemLong	7LRecFem	8LVastMed	9LVastLat	10LGasMed	11LTibAnt	12lTibPost	13LPeroneusLong	14LSol	15LExtDigLong	16LFlexDigLong	17RAddLong	18RGlutMax	19RGlutMed	20RIliopsoas	21RSemiMemb	22RBicFemLong	23RRecFem	24RVastMed	25RVastLat	26RGasMed	27RTibAnt	28RTibPost	29RPeroneusLong	30RSol	31RExtDigLong	32RFlexDigLong
54.053	0.024872	-0.019989	-0.015259	-0.027313	0.020905	-0.16907	0.10117	0.003052	-0.012512	0.024261	0.05722	0.055542	-0.13397	0.028381	-0.17944	0.014343	0.022583	-0.095367	0.22736	-0.10254	0.049133	0.016632	0.018616	-0.030212	-0.003662	-0.000458	0.11231	0.000916	0.1152	0.11505	0.000763	-0.004272
54.054	0.03479	-0.011292	-0.046234	0.008087	0.15915	-0.1767	0.081329	-0.005493	-0.00885	-0.007172	0.10468	0.064697	-0.08194	0.033417	-0.20172	0.011292	0.040588	-0.11643	0.1004	-0.033112	0.052185	0.009003	0.028992	-0.072327	0.000305	-0.006866	-0.086823	0.001068	-0.021973	0.18845	-0.001068	-0.002441
54.055	0.034943	-0.026855	-0.066071	0.016937	0.11826	-0.1326	0.097809	0.000153	-0.014343	0.003052	0.047913	0.06546	-0.13031	0.08606	-0.059662	0.006866	0.040436	-0.079803	0.027924	0.093079	0.032501	0.001984	0.027771	-0.054779	-0.001221	-0.00412	-0.028534	-0.003967	-0.26932	0.18341	0.005798	0.001678
54.056	0.028229	0.001068	-0.063324	-0.003967	0.024261	-0.07019	0.097351	0.002289	-0.008698	0.029297	-0.046234	0.055847	-0.076599	0.11841	0.31097	0.015106	0.0354	-0.072021	0.097351	0.19318	0.014954	0.008698	-0.010071	-0.08667	0.006409	-0.005035	0.085297	0.010681	-0.080872	0.15137	-0.000305	-0.004272
54.057	0.022736	0.003204	-0.00946	-0.014343	0.028687	-0.072021	0.10513	0.002747	-0.002136	0.071869	0.062256	0.053711	-0.13031	0.13184	0.54596	0.007629	-0.00946	-0.071869	0.041962	0.19333	-0.037842	0.050812	0.042267	-0.05249	-0.002289	-0.005493	0.067139	0.000305	-0.091705	0.089111	0.000458	0.003052
54.058	0.01358	-0.007324	0.024261	0.005035	0.014801	-0.05249	0.11124	0.010376	0.006256	0.041046	-0.11337	0.055542	-0.057373	0.079956	0.33218	-0.004425	-0.028687	-0.087891	-0.10315	0.15182	-0.059204	0.025787	0.15488	-0.070343	-0.007629	-0.010529	0.007019	-0.002747	-0.065155	0.069427	0.003204	-0.002289
54.059	-0.002441	0.014954	0.02594	0.004883	-0.064545	-0.043182	0.13397	0.005188	0.039215	-0.027313	-0.25085	0.052643	0.067596	0.064392	0.18463	-0.002289	0.033112	-0.11551	-0.16571	0.057983	0.003662	0.012207	0.14023	-0.048676	-0.013123	-0.001526	-0.22598	0.000153	0.074921	0.024414	0.00061	-0.003052
54.06	-0.000153	0.019684	0.012512	0	-0.15472	-0.06012	0.12009	-0.005188	0.037689	-0.099182	-0.073242	0.047302	0.040894	-0.003357	0.5545	-0.002136	0.068665	-0.10208	-0.028381	0.004425	0.092773	-0.013428	0.13077	-0.03952	0.000763	-0.00351	-0.38025	-0.00412	0.056	0.052948	-0.001678	-0.002136
54.061	0.009308	0.028381	-0.10956	-0.005493	-0.13367	-0.073853	0.11047	0.005951	-0.027924	-0.12894	0.045929	0.04715	0.060425	-0.089417	0.16571	-0.008087	0.058746	-0.056915	0.008545	-0.015564	0.079651	-0.023804	0.095367	-0.04776	-0.011444	-0.003052	-0.20355	-0.002441	0.12817	0.13458	0.00061	-0.009003
54.062	0.009155	0.033722	-0.13275	0.010986	0.061188	-0.08667	0.12299	0.002899	-0.044403	-0.059662	-0.062714	0.031128	0.11078	-0.15213	-0.30075	-0.010986	0.015869	-0.088959	-0.097351	-0.002594	0.086975	-0.020752	0.087433	-0.018005	-0.001068	-0.00824	0.067444	0.005341	0.045624	0.062561	0.001678	-0.013275
54.063	0.013885	0.011749	-0.069122	0.006866	0.14969	-0.021057	0.12329	0.002747	-0.042114	0.048981	-0.13351	0.034027	0.074921	-0.18585	-0.083313	-0.024414	-0.005798	-0.10651	0.010986	-0.024872	-0.033875	0.031738	0.01236	-0.067444	-0.012512	-0.005493	0.14832	-0.002136	-0.090942	0.000763	0.002747	-0.005951
54.064	0.009308	0.019073	0.15976	0.021973	0.13168	0.016174	0.13351	0.003357	-0.093842	0.20508	-0.088043	0.03479	0.029755	-0.21072	0.067139	-0.020447	-0.018311	-0.085602	0.006256	-0.031738	-0.050659	0.010986	0.022125	-0.060272	0.01358	-0.010376	0.10193	-0.00412	-0.21454	-0.012054	0.000916	-0.010681
54.065	0.010071	-0.007629	0.084686	0.018311	0.08194	0.076294	0.073395	0.006866	-0.10941	0.31601	-0.006409	0.029755	-0.068359	-0.21439	-0.22247	-0.014191	-0.021057	-0.1059	-0.063324	-0.05661	-0.048218	0.018463	-0.068817	-0.085907	0.010223	-0.010681	0.060883	-0.005035	-0.13962	-0.019836	0.000763	-0.009766
54.066	0.000153	0.003204	0.084839	0.007629	0.028534	0.075378	0.08606	0.013275	0.045929	0.28763	-0.006866	0.026398	-0.10132	-0.15243	-0.23605	0.007629	-0.017548	-0.10223	-0.08606	-0.06073	-0.024414	0.011902	-0.17151	-0.099335	0.020447	-0.016479	0.078125	0.006256	0.026398	-0.026245	-0.000916	-0.006256
54.067	0.006714	0.02655	0.041199	0.002594	0.036926	-0.000305	0.07843	-0.00351	0.1474	0.016937	-0.00412	0.028381	-0.053406	-0.16541	-0.32989	0.015411	0.00946	-0.089417	-0.10193	-0.092163	0.015259	-0.002289	-0.098114	-0.079346	0.00824	-0.02182	0.14984	-0.002289	0.062866	-0.058899	0.001373	-0.005493
54.068	0.007629	-0.016632	0.009766	-0.002289	0.037231	-0.00885	0.056915	-0.003204	0.023346	-0.24857	-0.028992	0.019379	-0.063934	-0.11017	-0.2388	0.021057	0.035248	-0.11688	0.014038	-0.085907	-0.00061	0.0354	-0.098267	-0.10849	0.026093	-0.014343	0.30548	-0.003662	0.086975	-0.075378	-0.003357	-0.008698
54.069	0.008087	-0.006714	-0.066833	-0.006714	0.037842	0.037537	0.11124	0.002136	-0.004578	-0.26276	-0.043488	0.019836	-0.090637	-0.054321	-0.13077	0.09491	0.036621	-0.050201	0.027466	-0.054626	0.03067	0.025635	-0.057526	-0.085297	0.013275	-0.009918	0.48645	-0.00412	0.15259	-0.093689	0.001526	-0.002747
54.07	-0.007477	0.016479	-0.084229	0.004425	0.030823	0.084991	0.13092	-0.004425	-0.040131	-0.11887	-0.049133	0.020294	-0.084991	-0.036163	-0.034943	0.003052	-0.002136	-0.041046	-0.02594	-0.05249	0.02533	0.048981	-0.082092	-0.046844	0.016174	-0.012207	0.40359	-0.009766	0.042572	-0.071869	-0.002441	-0.00824
54.071	-0.008698	-0.005951	-0.10101	-0.000458	-0.00351	0.11566	0.15808	-0.00351	0.005035	0.12528	-0.042114	0.007629	0.006714	0.00351	-0.023804	-0.25925	-0.032959	-0.091553	0.009155	-0.012817	-0.027771	0.065765	-0.051575	-0.057373	0.028992	-0.014496	0.34149	-0.003967	-0.09201	-0.075073	-0.001068	0.002594
54.072	-0.010681	0.02655	-0.080719	0.00824	-0.03006	0.13596	0.13367	0.006409	0.001984	0.25421	-0.028076	0.014954	0.057678	-0.011597	0.037689	0.096741	-0.007782	-0.05661	0.001984	0.02655	-0.063934	0.046082	-0.00946	-0.052643	0.026855	-0.007629	0.046387	-0.000153	-0.030212	-0.12848	0	-0.001831
54.073	-0.009918	0.052032	-0.11017	0.004578	-0.06546	0.080872	0.094757	0.005188	-0.015717	0.17227	0.000153	0.013733	0.038452	0.01236	0.11276	0.09903	0.022888	-0.034943	0.023651	0.019379	-0.11581	0.018463	0.023804	-0.079651	0.020447	-0.00412	-0.061188	-0.003204	0.040436	-0.1387	0.001221	-0.002594
54.074	0.005188	0.029144	-0.018158	0.002747	-0.054169	0.00824	0.092773	-0.001831	-0.005798	0.09552	0.03952	0.016632	0.061035	0.003967	0.099792	0.045013	0.085449	-0.071564	0.001984	0.050507	-0.084991	0.025482	-0.011597	-0.053101	0.023193	-0.011902	0.006714	-0.010529	-0.025787	-0.12314	0.001984	-0.010071
54.075	0.013733	0.047607	-0.080414	0.007172	0.032196	-0.018768	0.12207	0.003357	-0.012207	-0.025482	0.071259	0.016632	0.009918	-0.001831	0.10162	0.010834	0.090637	-0.029449	-0.031738	0.042419	0.050354	0.015259	-0.024719	-0.031891	0.018463	-0.001526	-0.28473	-0.006409	0.057526	-0.16357	-0.006714	-0.010071
